<?xml version="1.0" encoding="UTF-8" standalone="no"?>
<!-- Created with Inkscape (http://www.inkscape.org/) -->

<svg
   width="900"
   height="834.22119"
   viewBox="0 0 900 834.22119"
   version="1.1"
   id="svg1"
   xml:space="preserve"
   xmlns="http://www.w3.org/2000/svg"
   xmlns:svg="http://www.w3.org/2000/svg"><defs
     id="defs1" /><g
     id="layer1"
     style="display:none"
     transform="translate(-49.999989,-82.889404)"><path
       style="fill:#050505;fill-opacity:1;stroke:none;stroke-width:11.3386"
       id="rect1"
       width="1000"
       height="1000"
       x="0"
       y="0"
       d="m 142.31805,0 h 715.3639 C 936.52615,0 1000,63.473852 1000,142.31805 v 715.3639 C 1000,936.52615 936.52615,1000 857.68195,1000 H 142.31805 C 63.473852,1000 0,936.52615 0,857.68195 V 142.31805 C 0,63.473852 63.473852,0 142.31805,0 Z"
       ry="142.31805" /></g><g
     id="layer2"
     transform="translate(-74.149464,-107.03888)"
     style="display:inline;fill:#bd3f42;fill-opacity:1;fill-rule:nonzero"><circle
       style="display:none;fill:#bd3f42;fill-opacity:1;fill-rule:nonzero;stroke:none;stroke-width:5.59166"
       id="path1"
       cx="524.14948"
       cy="524.14948"
       r="250" /><path
       style="fill:#f6f6f6;fill-opacity:1;stroke:none;stroke-width:1.85781;stroke-opacity:1"
       d="m 74.149465,933.78508 v -7.4751 h 46.345505 46.34552 v 7.4751 7.475 H 120.49496 74.149465 Z M 275.97668,743.9175 V 546.57472 H 208.70096 141.42522 V 721.4921 896.40949 h 12.70763 12.70764 v 7.47506 7.47512 H 146.65778 126.47505 V 721.4921 531.62456 h 82.22591 82.22591 v 197.34263 197.34279 h 114.36877 114.36875 v -7.4753 -7.475 H 412.77072 305.87704 V 721.4921 531.62456 H 395.57801 485.279 V 326.80688 121.98902 H 279.71424 74.149465 v -7.47506 -7.47508 H 287.18933 500.2292 v 219.768 219.76784 H 410.52819 320.82722 V 721.4921 896.40949 h 102.40861 102.40866 v 7.47506 7.47512 h 17.19266 17.19269 V 524.1495 136.93936 h -20.18268 -20.18275 v -7.47526 -7.47508 h 47.84054 47.84052 v 7.47508 7.47526 H 595.16276 574.98001 V 326.80688 516.67442 H 746.90693 918.83388 V 326.80688 136.93936 h -20.18276 -20.18273 v -7.47526 -7.47508 h 47.84049 47.8406 v 7.47508 7.47526 h -20.1828 -20.1827 V 524.1495 911.35968 h 20.1827 20.1828 v 7.475 7.47529 h -47.8406 -47.84049 v -7.47529 -7.475 h 20.18273 20.18276 V 721.4921 531.62456 H 746.90693 574.98005 v 189.86755 189.86757 h 20.18273 20.18268 v 7.475 7.4753 H 570.495 525.64448 v 7.4751 7.475 H 400.81058 275.97672 Z M 74.149465,903.88456 v -7.47507 h 11.21265 11.21259 V 524.1495 151.88951 h -11.21259 -11.21265 v -7.47508 -7.47507 h 18.6877 18.687705 V 524.1495 911.35968 H 92.837165 74.149465 Z M 126.47505,326.80688 V 136.93936 h 171.92688 171.9269 V 326.80688 516.67442 H 298.40193 126.47505 Z m 328.90365,0 V 151.88951 H 298.40193 141.42519 V 326.80688 501.7241 H 298.40193 455.3787 Z"
       id="path4" /></g></svg>
